<?xml version="1.0" encoding="UTF-8"?>
<!DOCTYPE svg PUBLIC "-//W3C//DTD SVG 1.1//EN" "http://www.w3.org/Graphics/SVG/1.1/DTD/svg11.dtd">
<!-- Creator: CorelDRAW X8 -->
<svg xmlns="http://www.w3.org/2000/svg" xml:space="preserve" width="3in" height="3in" version="1.1" style="shape-rendering:geometricPrecision; text-rendering:geometricPrecision; image-rendering:optimizeQuality; fill-rule:evenodd; clip-rule:evenodd"
viewBox="0 0 3000 3000"
 xmlns:xlink="http://www.w3.org/1999/xlink">
 <defs>
  <style type="text/css">
   <![CDATA[
    .fil1 {fill:#FEFEFE}
    .fil0 {fill:#E41F66}
   ]]>
  </style>
 </defs>
 <g id="Layer_x0020_1">
  <metadata id="CorelCorpID_0Corel-Layer"/>
  <rect class="fil0" width="3000" height="3000" rx="1500" ry="1500"/>
  <g id="_3099273010608">
   <path class="fil1" d="M1970 2204c-44,-6 -88,-30 -116,-52 -18,-14 -8,-6 -22,-23 -70,-88 -105,-190 -171,-311l-352 -698c-10,-22 -21,-38 -31,-56 -28,-52 -65,-140 -116,-189 -8,-7 -13,-13 -22,-22 -33,-34 -63,-34 -81,-40 -30,-10 -11,-12 -93,-34 -70,-18 -245,-20 -326,-14 35,-11 139,111 168,171l183 349c10,21 16,35 29,58 6,11 10,17 15,28l281 557c54,89 81,183 192,249 110,65 290,57 418,44 37,-4 33,-6 44,-17zm-1592 -1053l38 26 15 -3c7,1 7,2 12,6l35 36c34,31 91,143 111,189 14,31 34,62 46,85 28,55 62,125 91,178l139 267c22,38 54,111 85,152 122,159 253,144 416,152 46,3 82,-4 130,-1 -16,-19 -86,-33 -157,-122 -43,-53 -107,-201 -147,-278l-191 -372c-15,-33 -33,-59 -48,-90 -30,-61 -51,-103 -101,-147 -5,-5 -8,-7 -10,-9 -1,-1 -2,-2 -3,-3 -18,-16 -63,-44 -96,-55 -47,-16 -65,-14 -114,-17l-208 0c-6,0 -25,1 -27,1l-16 5zm1592 1053c-11,11 -7,13 -44,17 -128,13 -308,21 -418,-44 -111,-66 -138,-160 -192,-249l-281 -557c-5,-11 -9,-17 -15,-28 -13,-23 -19,-37 -29,-58l-183 -349c-29,-60 -133,-182 -168,-171 81,-6 256,-4 326,14 82,22 63,24 93,34 18,6 48,6 81,40 9,9 14,15 22,22 51,49 88,137 116,189 10,18 21,34 31,56l352 698c66,121 101,223 171,311 14,17 4,9 22,23 28,22 72,46 116,52zm-254 42c46,0 273,-6 318,-38 -91,-21 -175,-43 -225,-137 -21,-39 -42,-78 -62,-119l-304 -602c-22,-42 -39,-78 -61,-121 -45,-90 -140,-289 -196,-347 -73,-76 -59,-58 -167,-102 -24,-10 -47,-16 -72,-21 -82,-17 -258,-7 -356,-7 20,18 117,44 178,147 23,37 36,68 57,105 21,38 37,67 56,107l415 810c25,47 19,46 56,112 9,15 21,37 31,51 11,15 24,28 37,44 56,71 185,118 295,118zm-1338 -1095l16 -5c2,0 21,-1 27,-1l208 0c49,3 67,1 114,17 33,11 78,39 96,55 1,1 2,2 3,3 2,2 5,4 10,9 50,44 71,86 101,147 15,31 33,57 48,90l191 372c40,77 104,225 147,278 71,89 141,103 157,122 -48,-3 -84,4 -130,1 -163,-8 -294,7 -416,-152 -31,-41 -63,-114 -85,-152l-139 -267c-29,-53 -63,-123 -91,-178 -12,-23 -32,-54 -46,-85 -20,-46 -77,-158 -111,-189l-35 -36c-5,-4 -5,-5 -12,-6l-15 3c76,58 165,243 216,346 64,128 128,243 192,371 114,226 183,358 479,358l206 0c34,1 49,7 63,-12 -217,-51 -241,-175 -327,-329l-252 -492c-52,-118 -118,-226 -243,-269 -101,-35 -281,-16 -397,-16l0 12c15,4 11,3 25,5z"/>
   <path class="fil1" d="M2603 1144c-136,-11 -286,-15 -392,42 -116,63 -161,207 -221,328l-112 225c-11,23 -25,48 -34,72 -6,13 -10,28 -15,41 -7,16 -12,20 -21,36 -18,32 -10,54 9,83 23,36 48,95 98,118 69,31 112,27 165,-23 15,-14 14,-15 23,-32 1,-1 9,-14 10,-16 12,-15 5,-3 15,-15 25,-33 145,-307 178,-372 14,-27 24,-48 38,-75 55,-104 102,-236 172,-329 18,-24 30,-46 54,-58 20,-11 21,-4 33,-25zm-847 690c12,-10 4,2 11,-11 6,-10 1,0 5,-13 -23,-1 -7,2 -11,-8 18,-29 49,-93 65,-131 44,-101 171,-332 204,-410 39,-93 88,-183 129,-277 15,-34 78,-132 102,-155l81 -65c-17,-5 -211,-1 -243,3 -82,8 -167,53 -227,98 -19,13 -98,120 -110,146 -8,16 -12,31 -22,47l-135 252c-16,35 -57,85 -57,124l41 89c37,77 130,242 151,305 1,1 3,-1 4,0 4,14 11,-27 12,6zm847 -690c-12,21 -13,14 -33,25 -24,12 -36,34 -54,58 -70,93 -117,225 -172,329 -14,27 -24,48 -38,75 -33,65 -153,339 -178,372 -10,12 -3,0 -15,15 -1,2 -9,15 -10,16 -9,17 -8,18 -23,32 -53,50 -96,54 -165,23 -50,-23 -75,-82 -98,-118 -19,-29 -27,-51 -9,-83 9,-16 14,-20 21,-36 5,-13 9,-28 15,-41 9,-24 23,-49 34,-72l112 -225c60,-121 105,-265 221,-328 106,-57 256,-53 392,-42zm-631 977c74,0 101,-12 151,-86 41,-61 98,-194 134,-266 13,-25 19,-43 31,-69l134 -273c46,-92 108,-254 225,-281l0 -12c-29,-1 -25,-7 -57,-7 -120,0 -279,-15 -381,44 -53,31 -82,54 -116,109 -78,129 -186,377 -261,527 -41,81 -65,99 -37,154 32,65 81,160 177,160zm-216 -287c-1,-33 -8,8 -12,-6 -1,-1 -3,1 -4,0 -21,-63 -114,-228 -151,-305l-41 -89c0,-39 41,-89 57,-124l135 -252c10,-16 14,-31 22,-47 12,-26 91,-133 110,-146 60,-45 145,-90 227,-98 32,-4 226,-8 243,-3l-81 65c-24,23 -87,121 -102,155 -41,94 -90,184 -129,277 -33,78 -160,309 -204,410 -16,38 -47,102 -65,131 4,10 -12,7 11,8l173 -347c13,-26 21,-49 33,-73l188 -387c31,-59 57,-109 101,-161 44,-52 71,-58 109,-79 1,-1 3,-2 4,-3 14,-9 3,-1 10,-8 -46,0 -72,-11 -128,-3 -38,5 -25,-2 -58,-2 -28,0 -145,11 -174,20 -151,49 -217,120 -294,262 -18,34 -29,63 -47,96l-48 90c-9,17 -17,27 -25,44l-71 135c-12,20 -21,22 -15,49l166 323c11,19 13,25 23,46 12,23 15,24 22,53l12 0c2,-22 3,-13 3,-31z"/>
  </g>
 </g>
</svg>
